<?xml version="1.0" encoding="UTF-8"?>
<svg id="Layer_1" data-name="Layer 1" xmlns="http://www.w3.org/2000/svg" viewBox="0 0 545.21 372.65">
  <defs>
    <style>
      .cls-1 {
        fill: #f7eb20;
      }

      .cls-2 {
        fill: #39c5f3;
      }

      .cls-3 {
        fill: #ec2024;
      }
    </style>
  </defs>
  <g>
    <path class="cls-3" d="M158.04,144.33c-2.31,0-4.14-1.98-3.94-4.28,2.16-24.62,22.84-43.93,48.02-43.93s45.85,19.31,48.02,43.93c.2,2.3-1.63,4.28-3.94,4.28h-20.79c-1.97,0-3.55-1.47-3.89-3.4-1.62-9.24-9.7-16.29-19.4-16.29s-17.78,7.05-19.4,16.29c-.34,1.94-1.92,3.4-3.89,3.4h-20.79Z"/>
    <path class="cls-3" d="M178.3,154.7c2.31,0,4.14,1.98,3.94,4.28-2.16,24.62-22.84,43.93-48.02,43.93s-45.85-19.31-48.02-43.93c-.2-2.3,1.63-4.28,3.94-4.28h20.79c1.97,0,3.55,1.47,3.89,3.4,1.62,9.24,9.7,16.29,19.4,16.29s17.78-7.05,19.4-16.29c.34-1.94,1.92-3.4,3.89-3.4h20.79Z"/>
    <path class="cls-3" d="M119.84,263.08l-6.82-3.86c-.89-.51-2.02-.33-2.71.42-.45.48-.91.94-1.4,1.37-.91.8-1.89,1.49-2.94,2.07-1.05.58-2.19,1.02-3.43,1.33-1.24.3-2.55.45-3.93.45-2.37,0-4.55-.48-6.54-1.45-1.99-.96-3.72-2.26-5.21-3.89-1.49-1.63-2.64-3.54-3.43-5.75-.8-2.21-1.2-4.55-1.2-7.03,0-1.66.17-3.25.5-4.8.33-1.54.84-2.99,1.53-4.34.69-1.35,1.56-2.58,2.61-3.68,1.05-1.1,2.16-2.04,3.35-2.81,1.19-.77,2.5-1.38,3.93-1.82,1.43-.44,2.95-.66,4.55-.66,1.32,0,2.61.15,3.85.46,1.24.3,2.39.73,3.43,1.28,1.05.55,2.03,1.24,2.94,2.07.49.44.95.91,1.4,1.39.7.76,1.83.94,2.72.43l6.78-3.83c1.22-.69,1.52-2.34.59-3.4s-1.84-1.99-2.84-2.91c-1.66-1.52-3.49-2.8-5.5-3.85-2.01-1.05-4.17-1.86-6.46-2.44-2.29-.58-4.68-.87-7.16-.87-2.65,0-5.21.36-7.7,1.08-2.48.72-4.8,1.72-6.95,3.02-2.15,1.3-4.12,2.84-5.92,4.64-1.79,1.79-3.34,3.79-4.63,6-1.3,2.21-2.29,4.58-2.98,7.12-.69,2.54-1.03,5.19-1.03,7.94,0,4.14.77,8.01,2.32,11.63,1.54,3.61,3.64,6.76,6.29,9.43,2.65,2.68,5.75,4.8,9.31,6.37,3.56,1.57,7.35,2.36,11.38,2.36,4.96,0,9.48-1.1,13.53-3.31,3.24-1.76,6.04-4.01,8.38-6.73.92-1.07.64-2.72-.59-3.41Z"/>
    <path class="cls-3" d="M143.67,219.17l-21.24,53.48c-.58,1.46.5,3.05,2.07,3.05h9.47c.94,0,1.78-.59,2.09-1.47l3.29-9.14c.32-.88,1.16-1.47,2.09-1.47h21.15c.92,0,1.75.57,2.08,1.44l3.5,9.21c.33.86,1.16,1.44,2.08,1.44h9.33c1.57,0,2.65-1.59,2.07-3.05l-21.32-53.48c-.34-.85-1.16-1.4-2.07-1.4h-12.54c-.91,0-1.73.56-2.07,1.4ZM154.07,235.82l5.89,15.25c.56,1.46-.51,3.03-2.08,3.03h-11.65c-1.56,0-2.63-1.56-2.08-3.01l5.76-15.25c.72-1.91,3.42-1.92,4.16-.02Z"/>
    <path class="cls-3" d="M227.42,221.95c-2.1-1.57-4.62-2.66-7.57-3.27-2.95-.61-6.19-.91-9.72-.91h-21.53c-1.23,0-2.23,1-2.23,2.23v53.48c0,1.23,1,2.23,2.23,2.23h7.88c1.23,0,2.23-1,2.23-2.23v-13.09c0-1.23,1-2.23,2.23-2.23h9.36c2.26,0,4.4-.12,6.41-.37,2.01-.25,3.92-.68,5.71-1.28,1.79-.61,3.39-1.39,4.8-2.36,1.41-.96,2.65-2.19,3.72-3.68,1.08-1.49,1.9-3.27,2.48-5.34.58-2.07.87-4.4.87-6.99,0-3.97-.62-7.27-1.86-9.89-1.24-2.62-2.91-4.72-5.01-6.29ZM220.68,243.47c-.58,1.24-1.39,2.26-2.44,3.06-1.05.8-2.3,1.35-3.77,1.66-1.46.3-3.08.46-4.84.46h-8.7c-1.23,0-2.23-1-2.23-2.23v-15.74c0-1.23,1-2.23,2.23-2.23h8.62c1.77,0,3.38.14,4.84.41,1.46.28,2.73.81,3.81,1.61,1.08.8,1.9,1.86,2.48,3.19.58,1.32.87,2.98.87,4.97s-.29,3.6-.87,4.84Z"/>
  </g>
  <g>
    <path class="cls-1" d="M294.15,144.33c-2.31,0-4.14-1.98-3.94-4.28,2.16-24.62,22.84-43.93,48.02-43.93s45.85,19.31,48.02,43.93c.2,2.3-1.63,4.28-3.94,4.28h-20.79c-1.97,0-3.55-1.47-3.89-3.4-1.62-9.24-9.7-16.29-19.4-16.29s-17.78,7.05-19.4,16.29c-.34,1.94-1.92,3.4-3.89,3.4h-20.79Z"/>
    <path class="cls-1" d="M314.41,154.7c2.31,0,4.14,1.98,3.94,4.28-2.16,24.62-22.84,43.93-48.02,43.93s-45.85-19.31-48.02-43.93c-.2-2.3,1.63-4.28,3.94-4.28h20.79c1.97,0,3.55,1.47,3.89,3.4,1.62,9.24,9.7,16.29,19.4,16.29s17.78-7.05,19.4-16.29c.34-1.94,1.92-3.4,3.89-3.4h20.79Z"/>
    <path class="cls-1" d="M288.57,225.67c-2.73-2.68-5.89-4.8-9.48-6.37-3.59-1.57-7.42-2.36-11.5-2.36-2.7,0-5.34.36-7.9,1.08-2.57.72-4.94,1.72-7.12,3.02-2.18,1.3-4.17,2.84-5.96,4.64-1.79,1.79-3.34,3.79-4.63,6-1.3,2.21-2.32,4.58-3.06,7.12-.74,2.54-1.12,5.19-1.12,7.94,0,4.14.77,8.01,2.32,11.63,1.54,3.61,3.65,6.76,6.33,9.43,2.67,2.68,5.82,4.8,9.43,6.37,3.61,1.57,7.49,2.36,11.63,2.36,2.76,0,5.39-.36,7.9-1.07,2.51-.72,4.87-1.72,7.08-3.02,2.2-1.3,4.21-2.84,6-4.63,1.79-1.79,3.34-3.79,4.63-6,1.3-2.21,2.3-4.58,3.02-7.12.72-2.54,1.08-5.19,1.08-7.94,0-4.14-.76-8.01-2.28-11.63-1.52-3.61-3.64-6.76-6.37-9.43ZM283.77,251.54c-.41,1.55-.98,2.99-1.7,4.34s-1.56,2.58-2.52,3.68c-.97,1.1-2.1,2.04-3.39,2.81-1.3.77-2.65,1.38-4.06,1.82-1.41.44-2.94.66-4.59.66-2.43,0-4.66-.48-6.7-1.45-2.04-.96-3.79-2.26-5.25-3.89-1.46-1.63-2.62-3.53-3.48-5.71-.86-2.18-1.28-4.54-1.28-7.07,0-1.66.18-3.25.54-4.8.36-1.54.88-2.99,1.57-4.34.69-1.35,1.56-2.58,2.61-3.68,1.05-1.1,2.19-2.04,3.43-2.81,1.24-.77,2.58-1.38,4.01-1.82,1.43-.44,2.95-.66,4.55-.66,2.48,0,4.74.48,6.79,1.45,2.04.97,3.81,2.26,5.3,3.89,1.49,1.63,2.66,3.53,3.52,5.71.85,2.18,1.28,4.54,1.28,7.08,0,1.66-.21,3.25-.62,4.8Z"/>
    <path class="cls-1" d="M315.66,251.7h25.26c1.23,0,2.23-1,2.23-2.23v-6.14c0-1.23-1-2.23-2.23-2.23h-25.26c-1.23,0-2.23-1-2.23-2.23v-7.71c0-1.23,1-2.23,2.23-2.23h27.58c1.23,0,2.23-1,2.23-2.23v-6.72c0-1.23-1-2.23-2.23-2.23h-39.91c-1.23,0-2.23,1-2.23,2.23v53.48c0,1.23,1,2.23,2.23,2.23h40.49c1.23,0,2.23-1,2.23-2.23v-6.72c0-1.23-1-2.23-2.23-2.23h-28.16c-1.23,0-2.23-1-2.23-2.23v-8.38c0-1.23,1-2.23,2.23-2.23Z"/>
    <rect class="cls-1" x="350.47" y="217.77" width="12.33" height="57.93" rx="2.23" ry="2.23"/>
  </g>
  <g>
    <path class="cls-2" d="M450.52,154.7c2.31,0,4.14,1.98,3.94,4.28-2.16,24.62-22.84,43.93-48.02,43.93s-45.85-19.31-48.02-43.93c-.2-2.3,1.63-4.28,3.94-4.28h20.79c1.97,0,3.55,1.47,3.89,3.4,1.62,9.24,9.7,16.29,19.4,16.29s17.78-7.05,19.4-16.29c.34-1.94,1.92-3.4,3.89-3.4h20.79Z"/>
    <path class="cls-2" d="M430.26,144.33h20.79c1.97,0,3.55-1.47,3.89-3.4.51-2.92,1.67-5.62,3.31-7.95,1.12-1.58,1.04-3.69-.32-5.06l-14.76-14.76c-1.62-1.62-4.31-1.54-5.79.23-6.16,7.35-10.17,16.56-11.06,26.67-.2,2.3,1.63,4.28,3.94,4.28Z"/>
    <path class="cls-2" d="M464.42,275.7h9.33c1.57,0,2.65-1.59,2.07-3.05l-21.32-53.48c-.34-.85-1.16-1.4-2.07-1.4h-12.54c-.91,0-1.73.56-2.07,1.4l-19.55,49.22c-.67,1.68-2.96,1.91-3.94.38l-7.35-11.47c-.75-1.17-.22-2.68,1.05-3.24,0,0,.02,0,.02-.01,2.07-.91,3.75-2.14,5.05-3.68,1.3-1.54,2.29-3.43,2.98-5.67.69-2.23,1.03-4.73,1.03-7.49s-.29-5.2-.87-7.16c-.58-1.96-1.41-3.65-2.48-5.09-1.07-1.43-2.36-2.62-3.85-3.56-1.49-.94-3.16-1.68-5.01-2.23-1.85-.55-3.82-.92-5.92-1.12-2.1-.19-4.25-.29-6.46-.29h-22.52c-1.23,0-2.23,1-2.23,2.23v53.48c0,1.23,1,2.23,2.23,2.23h7.88c1.23,0,2.23-1,2.23-2.23v-14.67c0-1.23,1-2.23,2.23-2.23h7.21c.61,0,1.23-.01,1.86-.04.42-.02.89-.06,1.37-.12l11.34,18.23c.41.65,1.12,1.05,1.89,1.05h22.11c.94,0,1.78-.59,2.09-1.47l3.29-9.14c.32-.88,1.16-1.47,2.09-1.47h21.15c.92,0,1.75.57,2.08,1.44l3.5,9.21c.33.86,1.16,1.44,2.08,1.44ZM393.13,246.98h-10.77c-1.23,0-2.23-1-2.23-2.23v-13.67c0-1.23,1-2.23,2.23-2.23h10.77c1.71,0,3.27.12,4.68.37,1.41.25,2.59.72,3.56,1.41.96.69,1.72,1.61,2.28,2.77.55,1.16.83,2.65.83,4.47s-.25,3.31-.74,4.47c-.5,1.16-1.23,2.08-2.19,2.77-.97.69-2.15,1.17-3.56,1.45-1.41.28-3.02.41-4.84.41ZM448.24,235.82l5.89,15.25c.56,1.46-.51,3.03-2.08,3.03h-11.65c-1.56,0-2.63-1.56-2.08-3.01l5.76-15.25c.72-1.91,3.42-1.92,4.16-.02Z"/>
  </g>
</svg>