<?xml version="1.0" encoding="UTF-8"?>
<svg id="Layer_1" data-name="Layer 1" xmlns="http://www.w3.org/2000/svg" viewBox="0 0 529.39 372.65">
  <defs>
    <style>
      .cls-1 {
        fill: #ec2024;
      }

      .cls-2 {
        fill: #30a8cf;
      }
    </style>
  </defs>
  <g>
    <path d="M153.01,145.38c-2.25,0-4.03-1.93-3.84-4.17,2.11-24,22.26-42.82,46.81-42.82,24.55,0,44.7,18.82,46.81,42.82.2,2.24-1.59,4.17-3.84,4.17h-20.27c-1.92,0-3.46-1.43-3.79-3.32-1.58-9.01-9.46-15.88-18.91-15.88-9.46,0-17.34,6.87-18.91,15.88-.33,1.89-1.87,3.32-3.79,3.32h-20.27Z"/>
    <path d="M172.77,155.5c2.25,0,4.03,1.93,3.84,4.17-2.11,24-22.26,42.82-46.81,42.82s-44.7-18.82-46.81-42.82c-.2-2.24,1.59-4.17,3.84-4.17h20.27c1.92,0,3.46,1.43,3.79,3.32,1.58,9.01,9.46,15.88,18.91,15.88,9.46,0,17.34-6.87,18.91-15.88.33-1.89,1.87-3.32,3.79-3.32h20.27Z"/>
    <path d="M115.78,261.15l-6.65-3.76c-.87-.49-1.97-.32-2.65.41-.44.47-.89.92-1.37,1.33-.89.78-1.84,1.45-2.86,2.02-1.02.57-2.14,1-3.35,1.29-1.21.3-2.49.44-3.83.44-2.31,0-4.44-.47-6.37-1.41-1.94-.94-3.63-2.2-5.08-3.79-1.45-1.58-2.57-3.46-3.35-5.61-.78-2.15-1.17-4.44-1.17-6.86,0-1.61.16-3.17.48-4.68.32-1.5.82-2.92,1.49-4.24.67-1.32,1.52-2.51,2.54-3.59,1.02-1.07,2.11-1.99,3.27-2.74,1.16-.75,2.43-1.34,3.83-1.78,1.4-.43,2.88-.64,4.44-.64,1.29,0,2.54.15,3.75.44,1.21.3,2.33.71,3.35,1.25,1.02.54,1.98,1.21,2.86,2.02.47.43.93.88,1.36,1.36.68.74,1.78.92,2.66.42l6.61-3.74c1.19-.68,1.48-2.29.58-3.32-.87-1-1.8-1.94-2.77-2.83-1.61-1.48-3.4-2.73-5.36-3.75-1.96-1.02-4.06-1.82-6.29-2.38-2.23-.56-4.56-.85-6.98-.85-2.58,0-5.08.35-7.5,1.05-2.42.7-4.68,1.68-6.78,2.94-2.1,1.26-4.02,2.77-5.77,4.52-1.75,1.75-3.25,3.7-4.52,5.85-1.26,2.15-2.23,4.46-2.9,6.94-.67,2.47-1.01,5.06-1.01,7.74,0,4.03.75,7.81,2.26,11.33,1.5,3.52,3.55,6.59,6.13,9.2,2.58,2.61,5.61,4.68,9.08,6.21,3.47,1.53,7.17,2.3,11.09,2.3,4.84,0,9.24-1.07,13.19-3.23,3.16-1.72,5.89-3.91,8.17-6.56.9-1.04.62-2.65-.58-3.33Z"/>
    <path d="M139.01,218.35l-20.7,52.13c-.57,1.42.48,2.97,2.02,2.97h9.24c.91,0,1.73-.57,2.04-1.43l3.21-8.91c.31-.86,1.13-1.43,2.04-1.43h20.62c.9,0,1.71.56,2.03,1.4l3.41,8.98c.32.84,1.13,1.4,2.03,1.4h9.1c1.53,0,2.58-1.55,2.01-2.97l-20.78-52.13c-.33-.82-1.13-1.37-2.01-1.37h-12.22c-.89,0-1.69.54-2.02,1.37ZM149.14,234.57l5.74,14.87c.55,1.42-.5,2.95-2.02,2.95h-11.36c-1.52,0-2.56-1.52-2.03-2.93l5.61-14.87c.7-1.86,3.34-1.87,4.05-.02Z"/>
    <path d="M220.65,221.05c-2.04-1.53-4.5-2.59-7.38-3.19-2.88-.59-6.04-.89-9.48-.89h-20.98c-1.2,0-2.17.97-2.17,2.17v52.13c0,1.2.97,2.17,2.17,2.17h7.68c1.2,0,2.17-.97,2.17-2.17v-12.76c0-1.2.97-2.17,2.17-2.17h9.13c2.2,0,4.29-.12,6.25-.36,1.96-.24,3.82-.66,5.57-1.25,1.75-.59,3.31-1.36,4.68-2.3,1.37-.94,2.58-2.14,3.63-3.59,1.05-1.45,1.86-3.19,2.42-5.2.56-2.02.85-4.29.85-6.82,0-3.87-.61-7.09-1.81-9.64-1.21-2.55-2.84-4.6-4.88-6.13ZM214.08,242.03c-.56,1.21-1.36,2.21-2.38,2.98-1.02.78-2.25,1.32-3.67,1.61-1.43.3-3,.44-4.72.44h-8.48c-1.2,0-2.17-.97-2.17-2.17v-15.35c0-1.2.97-2.17,2.17-2.17h8.4c1.72,0,3.29.13,4.72.4,1.42.27,2.66.79,3.71,1.57,1.05.78,1.86,1.82,2.42,3.11.56,1.29.85,2.9.85,4.84,0,1.94-.28,3.51-.85,4.72Z"/>
  </g>
  <g>
    <path class="cls-1" d="M285.69,145.38c-2.25,0-4.03-1.93-3.84-4.17,2.11-24,22.26-42.82,46.81-42.82s44.7,18.82,46.81,42.82c.2,2.24-1.59,4.17-3.84,4.17h-20.27c-1.92,0-3.46-1.43-3.79-3.32-1.58-9.01-9.46-15.88-18.91-15.88-9.46,0-17.34,6.87-18.91,15.88-.33,1.89-1.87,3.32-3.79,3.32h-20.27Z"/>
    <path class="cls-1" d="M305.45,155.5c2.25,0,4.03,1.93,3.84,4.17-2.11,24-22.26,42.82-46.81,42.82-24.55,0-44.7-18.82-46.81-42.82-.2-2.24,1.59-4.17,3.84-4.17h20.27c1.92,0,3.46,1.43,3.79,3.32,1.58,9.01,9.46,15.88,18.91,15.88,9.46,0,17.34-6.87,18.91-15.88.33-1.89,1.87-3.32,3.79-3.32h20.27Z"/>
    <path class="cls-1" d="M280.25,224.68c-2.66-2.61-5.74-4.68-9.24-6.21-3.5-1.53-7.23-2.3-11.21-2.3-2.64,0-5.2.35-7.7,1.05-2.5.7-4.81,1.68-6.94,2.94-2.13,1.26-4.06,2.77-5.81,4.52-1.75,1.75-3.25,3.7-4.52,5.85-1.26,2.15-2.26,4.46-2.98,6.94s-1.09,5.06-1.09,7.74c0,4.03.75,7.81,2.26,11.33,1.5,3.52,3.56,6.59,6.17,9.2,2.61,2.61,5.67,4.68,9.2,6.21,3.52,1.53,7.3,2.3,11.34,2.3,2.69,0,5.26-.35,7.7-1.05,2.45-.7,4.75-1.68,6.9-2.94,2.15-1.26,4.1-2.77,5.85-4.52s3.25-3.7,4.52-5.85c1.26-2.15,2.25-4.46,2.94-6.94.7-2.47,1.05-5.06,1.05-7.74,0-4.03-.74-7.81-2.22-11.34-1.48-3.52-3.55-6.59-6.21-9.2ZM275.57,249.89c-.4,1.51-.96,2.92-1.65,4.24-.7,1.32-1.52,2.51-2.46,3.59-.94,1.08-2.04,1.99-3.31,2.74-1.26.75-2.58,1.34-3.95,1.78-1.37.43-2.86.64-4.48.64-2.37,0-4.55-.47-6.54-1.41-1.99-.94-3.7-2.2-5.12-3.79-1.43-1.58-2.56-3.44-3.39-5.57-.83-2.12-1.25-4.42-1.25-6.9,0-1.61.18-3.17.53-4.68.35-1.5.86-2.92,1.53-4.24.67-1.32,1.52-2.51,2.54-3.59,1.02-1.07,2.14-1.99,3.35-2.74,1.21-.75,2.51-1.34,3.91-1.78,1.4-.43,2.88-.64,4.44-.64,2.42,0,4.62.47,6.61,1.41,1.99.94,3.71,2.21,5.16,3.79,1.45,1.59,2.59,3.44,3.43,5.57.83,2.13,1.25,4.42,1.25,6.9,0,1.61-.2,3.17-.61,4.68Z"/>
    <path class="cls-1" d="M306.67,250.05h24.62c1.2,0,2.17-.97,2.17-2.17v-5.99c0-1.2-.97-2.17-2.17-2.17h-24.62c-1.2,0-2.17-.97-2.17-2.17v-7.52c0-1.2.97-2.17,2.17-2.17h26.88c1.2,0,2.17-.97,2.17-2.17v-6.55c0-1.2-.97-2.17-2.17-2.17h-38.9c-1.2,0-2.17.97-2.17,2.17v52.13c0,1.2.97,2.17,2.17,2.17h39.47c1.2,0,2.17-.97,2.17-2.17v-6.55c0-1.2-.97-2.17-2.17-2.17h-27.45c-1.2,0-2.17-.97-2.17-2.17v-8.17c0-1.2.97-2.17,2.17-2.17Z"/>
    <rect class="cls-1" x="340.6" y="216.98" width="12.02" height="56.47" rx="2.17" ry="2.17"/>
  </g>
  <g>
    <path class="cls-2" d="M438.13,155.5c2.25,0,4.03,1.93,3.84,4.17-2.11,24-22.26,42.82-46.81,42.82s-44.7-18.82-46.81-42.82c-.2-2.24,1.59-4.17,3.84-4.17h20.27c1.92,0,3.46,1.43,3.79,3.32,1.58,9.01,9.46,15.88,18.91,15.88,9.46,0,17.34-6.87,18.91-15.88.33-1.89,1.87-3.32,3.79-3.32h20.27Z"/>
    <path class="cls-2" d="M418.38,145.38h20.27c1.92,0,3.46-1.43,3.79-3.32.5-2.85,1.62-5.48,3.23-7.75,1.09-1.54,1.02-3.6-.31-4.93l-14.39-14.39c-1.58-1.58-4.21-1.5-5.64.22-6,7.16-9.91,16.15-10.78,26-.2,2.24,1.59,4.17,3.84,4.17Z"/>
    <path class="cls-2" d="M451.68,273.45h9.1c1.53,0,2.58-1.55,2.01-2.97l-20.78-52.13c-.33-.82-1.13-1.37-2.01-1.37h-12.22c-.89,0-1.69.54-2.02,1.37l-19.06,47.99c-.65,1.64-2.89,1.86-3.84.37l-7.17-11.18c-.73-1.14-.22-2.61,1.02-3.16,0,0,.02,0,.02-.01,2.02-.89,3.66-2.08,4.92-3.59,1.26-1.5,2.23-3.35,2.9-5.53.67-2.18,1.01-4.61,1.01-7.3,0-2.74-.28-5.07-.85-6.98-.56-1.91-1.37-3.56-2.42-4.96-1.05-1.4-2.3-2.55-3.75-3.47-1.45-.91-3.08-1.64-4.88-2.18-1.8-.54-3.73-.9-5.77-1.09-2.04-.19-4.14-.28-6.29-.28h-21.95c-1.2,0-2.17.97-2.17,2.17v52.13c0,1.2.97,2.17,2.17,2.17h7.68c1.2,0,2.17-.97,2.17-2.17v-14.3c0-1.2.97-2.17,2.17-2.17h7.03c.59,0,1.2-.01,1.82-.04.41-.02.87-.06,1.34-.11l11.05,17.77c.4.64,1.09,1.02,1.84,1.02h9.12s3.31,0,3.31,0h9.12c.91,0,1.73-.57,2.04-1.43l3.21-8.91c.31-.86,1.13-1.43,2.04-1.43h20.62c.9,0,1.71.56,2.03,1.4l3.41,8.98c.32.84,1.13,1.4,2.03,1.4ZM382.18,245.46h-10.5c-1.2,0-2.17-.97-2.17-2.17v-13.33c0-1.2.97-2.17,2.17-2.17h10.5c1.67,0,3.19.12,4.56.36,1.37.24,2.53.7,3.47,1.37.94.67,1.68,1.57,2.22,2.7s.81,2.58.81,4.36-.24,3.23-.73,4.36c-.48,1.13-1.2,2.03-2.14,2.7-.94.67-2.1,1.14-3.47,1.41-1.37.27-2.94.4-4.72.4ZM435.9,234.57l5.74,14.87c.55,1.42-.5,2.95-2.02,2.95h-11.36c-1.52,0-2.56-1.52-2.03-2.93l5.61-14.87c.7-1.86,3.34-1.87,4.05-.02Z"/>
  </g>
</svg>